{"accessors":[{"bufferView":0,"byteOffset":0,"componentType":5126,"count":162,"max":[0.00895000000000004,0.175115470053838,0.008884744423177656],"min":[-0.0089500000000001,0.174769059892324,-0.008884744423177651],"type":"VEC3"},{"bufferView":0,"byteOffset":1944,"componentType":5126,"count":54,"max":[0.00875000000000004,0.174769059892324,0.008686202648358034],"min":[-0.008750000000000091,0.17239999999999997,-0.008686202648358034],"type":"VEC3"},{"bufferView":0,"byteOffset":2592,"componentType":5126,"count":54,"max":[0.01,0.17572168783648703,0.00992708874098064],"min":[-0.010000000000000099,0.175115470053838,-0.009927088740980639],"type":"VEC3"},{"bufferView":0,"byteOffset":3240,"componentType":5126,"count":216,"max":[0.00915000000000004,0.17239999999999997,0.009083286197997253],"min":[-0.009150000000000089,0.17200000000000001,-0.009083286197997257],"type":"VEC3"},{"bufferView":0,"byteOffset":5832,"componentType":5126,"count":52,"max":[0.01045,0.17200000000000001,0.010373807734324766],"min":[-0.010450000000000102,0.17200000000000001,-0.010373807734324765],"type":"VEC3"},{"bufferView":0,"byteOffset":6456,"componentType":5126,"count":7,"max":[-0.011,0.165,0.00539096466321213],"min":[-0.0122500000000001,0.16375,-0.00539096466321213],"type":"VEC3"},{"bufferView":0,"byteOffset":6540,"componentType":5126,"count":21,"max":[-0.011,0.17191391365009998,0.00539096466321213],"min":[-0.011,0.165,-0.00539096466321213],"type":"VEC3"},{"bufferView":0,"byteOffset":6792,"componentType":5126,"count":7,"max":[0.01225000000000004,0.165,0.00539096466321201],"min":[0.011,0.16374999999999995,-0.00539096466321201],"type":"VEC3"},{"bufferView":0,"byteOffset":6876,"componentType":5126,"count":21,"max":[0.011,0.17190432041454176,0.00539096466321201],"min":[0.011,0.165,-0.00539096466321201],"type":"VEC3"},{"bufferView":0,"byteOffset":7128,"componentType":5126,"count":62,"max":[0.01225000000000004,0.1702,0.012160683707701264],"min":[-0.0122500000000001,0.163,-0.01216068370770126],"type":"VEC3"},{"bufferView":0,"byteOffset":7872,"componentType":5126,"count":242,"max":[0.011,0.17200000000000001,0.012156092386675312],"min":[-0.011,0.1702,-0.012156092386675314],"type":"VEC3"},{"bufferView":0,"byteOffset":10776,"componentType":5126,"count":32,"max":[0.04,-0.212,0.04],"min":[-0.04,-0.212,-0.04],"type":"VEC3"},{"bufferView":0,"byteOffset":11160,"componentType":5126,"count":66,"max":[0.04,-0.164,0.04],"min":[-0.04,-0.212,-0.04],"type":"VEC3"},{"bufferView":0,"byteOffset":11952,"componentType":5126,"count":58,"max":[0.04,-0.164,0.04],"min":[-0.04,-0.164,-0.04],"type":"VEC3"},{"bufferView":0,"byteOffset":12648,"componentType":5126,"count":54,"max":[0.0125,0.16256698729810795,0.012408860926225678],"min":[-0.0125000000000001,-0.164,-0.012408860926225675],"type":"VEC3"},{"bufferView":0,"byteOffset":13296,"componentType":5126,"count":54,"max":[0.0125,0.163,0.012408860926225678],"min":[-0.0125000000000001,0.16256698729810795,-0.012408860926225675],"type":"VEC3"},{"bufferView":0,"byteOffset":13944,"componentType":5126,"count":54,"max":[0.01,0.208703027096654,0.00992708874098064],"min":[-0.010000000000000099,0.17572168783648703,-0.009927088740980639],"type":"VEC3"},{"bufferView":0,"byteOffset":14592,"componentType":5126,"count":54,"max":[0.01,0.212,0.00992708874098064],"min":[-0.010000000000000099,0.208703027096654,-0.009927088740980639],"type":"VEC3"},{"bufferView":0,"byteOffset":15240,"componentType":5126,"count":26,"max":[0.00880000000000002,0.212,0.008735838092062928],"min":[-0.00880000000000008,0.212,-0.008735838092062926],"type":"VEC3"},{"bufferView":1,"byteOffset":0,"componentType":5126,"count":162,"type":"VEC3"},{"bufferView":1,"byteOffset":1944,"componentType":5126,"count":54,"type":"VEC3"},{"bufferView":1,"byteOffset":2592,"componentType":5126,"count":54,"type":"VEC3"},{"bufferView":1,"byteOffset":3240,"componentType":5126,"count":216,"type":"VEC3"},{"bufferView":1,"byteOffset":5832,"componentType":5126,"count":52,"type":"VEC3"},{"bufferView":1,"byteOffset":6456,"componentType":5126,"count":7,"type":"VEC3"},{"bufferView":1,"byteOffset":6540,"componentType":5126,"count":21,"type":"VEC3"},{"bufferView":1,"byteOffset":6792,"componentType":5126,"count":7,"type":"VEC3"},{"bufferView":1,"byteOffset":6876,"componentType":5126,"count":21,"type":"VEC3"},{"bufferView":1,"byteOffset":7128,"componentType":5126,"count":62,"type":"VEC3"},{"bufferView":1,"byteOffset":7872,"componentType":5126,"count":242,"type":"VEC3"},{"bufferView":1,"byteOffset":10776,"componentType":5126,"count":32,"type":"VEC3"},{"bufferView":1,"byteOffset":11160,"componentType":5126,"count":66,"type":"VEC3"},{"bufferView":1,"byteOffset":11952,"componentType":5126,"count":58,"type":"VEC3"},{"bufferView":1,"byteOffset":12648,"componentType":5126,"count":54,"type":"VEC3"},{"bufferView":1,"byteOffset":13296,"componentType":5126,"count":54,"type":"VEC3"},{"bufferView":1,"byteOffset":13944,"componentType":5126,"count":54,"type":"VEC3"},{"bufferView":1,"byteOffset":14592,"componentType":5126,"count":54,"type":"VEC3"},{"bufferView":1,"byteOffset":15240,"componentType":5126,"count":26,"type":"VEC3"},{"bufferView":2,"byteOffset":0,"componentType":5123,"count":780,"type":"SCALAR"},{"bufferView":2,"byteOffset":1560,"componentType":5123,"count":156,"type":"SCALAR"},{"bufferView":2,"byteOffset":1872,"componentType":5123,"count":156,"type":"SCALAR"},{"bufferView":2,"byteOffset":2184,"componentType":5123,"count":1092,"type":"SCALAR"},{"bufferView":2,"byteOffset":4368,"componentType":5123,"count":156,"type":"SCALAR"},{"bufferView":2,"byteOffset":4680,"componentType":5123,"count":15,"type":"SCALAR"},{"bufferView":2,"byteOffset":4712,"componentType":5123,"count":57,"type":"SCALAR"},{"bufferView":2,"byteOffset":4828,"componentType":5123,"count":15,"type":"SCALAR"},{"bufferView":2,"byteOffset":4860,"componentType":5123,"count":57,"type":"SCALAR"},{"bufferView":2,"byteOffset":4976,"componentType":5123,"count":180,"type":"SCALAR"},{"bufferView":2,"byteOffset":5336,"componentType":5123,"count":1188,"type":"SCALAR"},{"bufferView":2,"byteOffset":7712,"componentType":5123,"count":90,"type":"SCALAR"},{"bufferView":2,"byteOffset":7892,"componentType":5123,"count":192,"type":"SCALAR"},{"bufferView":2,"byteOffset":8276,"componentType":5123,"count":174,"type":"SCALAR"},{"bufferView":2,"byteOffset":8624,"componentType":5123,"count":156,"type":"SCALAR"},{"bufferView":2,"byteOffset":8936,"componentType":5123,"count":156,"type":"SCALAR"},{"bufferView":2,"byteOffset":9248,"componentType":5123,"count":156,"type":"SCALAR"},{"bufferView":2,"byteOffset":9560,"componentType":5123,"count":156,"type":"SCALAR"},{"bufferView":2,"byteOffset":9872,"componentType":5123,"count":72,"type":"SCALAR"}],"asset":{"generator":"Open CASCADE Technology 7.8 [dev.opencascade.org]","version":"2.0"},"bufferViews":[{"buffer":0,"byteLength":15552,"byteOffset":0,"byteStride":12,"target":34962},{"buffer":0,"byteLength":15552,"byteOffset":15552,"byteStride":12,"target":34962},{"buffer":0,"byteLength":10016,"byteOffset":31104,"target":34963}],"buffers":[{"byteLength":41120,"uri":"STELO-250.bin"}],"materials":[{"name":"mat_0","pbrMetallicRoughness":{"baseColorFactor":[0.9046611785888672,0.9046611785888672,0.9046611785888672,1.0]},"doubleSided":true}],"meshes":[{"name":"STELO-250","primitives":[{"attributes":{"NORMAL":19,"POSITION":0},"indices":38,"material":0,"mode":4},{"attributes":{"NORMAL":20,"POSITION":1},"indices":39,"material":0,"mode":4},{"attributes":{"NORMAL":21,"POSITION":2},"indices":40,"material":0,"mode":4},{"attributes":{"NORMAL":22,"POSITION":3},"indices":41,"material":0,"mode":4},{"attributes":{"NORMAL":23,"POSITION":4},"indices":42,"material":0,"mode":4},{"attributes":{"NORMAL":24,"POSITION":5},"indices":43,"material":0,"mode":4},{"attributes":{"NORMAL":25,"POSITION":6},"indices":44,"material":0,"mode":4},{"attributes":{"NORMAL":26,"POSITION":7},"indices":45,"material":0,"mode":4},{"attributes":{"NORMAL":27,"POSITION":8},"indices":46,"material":0,"mode":4},{"attributes":{"NORMAL":28,"POSITION":9},"indices":47,"material":0,"mode":4},{"attributes":{"NORMAL":29,"POSITION":10},"indices":48,"material":0,"mode":4},{"attributes":{"NORMAL":30,"POSITION":11},"indices":49,"material":0,"mode":4},{"attributes":{"NORMAL":31,"POSITION":12},"indices":50,"material":0,"mode":4},{"attributes":{"NORMAL":32,"POSITION":13},"indices":51,"material":0,"mode":4},{"attributes":{"NORMAL":33,"POSITION":14},"indices":52,"material":0,"mode":4},{"attributes":{"NORMAL":34,"POSITION":15},"indices":53,"material":0,"mode":4},{"attributes":{"NORMAL":35,"POSITION":16},"indices":54,"material":0,"mode":4},{"attributes":{"NORMAL":36,"POSITION":17},"indices":55,"material":0,"mode":4},{"attributes":{"NORMAL":37,"POSITION":18},"indices":56,"material":0,"mode":4}]}],"nodes":[{"mesh":0,"name":"STELO-250"}],"scene":0,"scenes":[{"nodes":[0]}]}